<?xml version="1.0" encoding="UTF-8"?>
<svg version="1.1" xmlns="http://www.w3.org/2000/svg" width="221" height="228">
<path d="M0 0 C72.93 0 145.86 0 221 0 C221 75.24 221 150.48 221 228 C148.07 228 75.14 228 0 228 C0 152.76 0 77.52 0 0 Z " fill="#D8E8EF" transform="translate(0,0)"/>
<path d="M0 0 C3.63324193 2.10929879 6.04002078 4.75813586 8.82421875 7.859375 C11.12207366 9.90893517 12.77531119 10.42912267 15.75 11.1328125 C22.77469196 12.85116023 27.595118 17.15062311 31.44921875 23.203125 C36.59661725 33.0849502 37.47631285 44.79485076 35.1640625 55.6875 C33.20694104 61.05703836 30.17465966 64.96740512 26.203125 69.0390625 C24.59334733 70.53145054 24.59334733 70.53145054 24.8125 72.6328125 C26.483125 72.3234375 26.483125 72.3234375 28.1875 72.0078125 C29.38375 71.8840625 30.58 71.7603125 31.8125 71.6328125 C33.8125 73.6328125 33.8125 73.6328125 33.9296875 75.515625 C33.2992421 81.35232916 31.69588675 85.51712633 28.8125 90.6328125 C26.8325 90.3028125 24.8525 89.9728125 22.8125 89.6328125 C22.895 90.7878125 22.9775 91.9428125 23.0625 93.1328125 C23.05145615 99.37258747 20.39903894 104.24685431 16.0625 108.6328125 C15.32 109.2928125 14.5775 109.9528125 13.8125 110.6328125 C14.121875 111.3959375 14.43125 112.1590625 14.75 112.9453125 C15.49143593 114.82070927 16.17478217 116.71965902 16.8125 118.6328125 C18.65239623 119.7250352 18.65239623 119.7250352 20.8125 120.6328125 C21.4533252 121.02412354 22.09415039 121.41543457 22.75439453 121.81860352 C28.83439212 125.51387976 34.77795963 127.07876364 41.6875 128.5703125 C56.83299175 132.13853814 67.20171551 137.41751775 76.71875 150.19140625 C77.8125 152.6328125 77.8125 152.6328125 77.1875 154.71875 C74.64116451 158.26336474 71.77634045 161.43208517 68.8125 164.6328125 C68.07773438 165.43332031 67.34296875 166.23382813 66.5859375 167.05859375 C47.16254508 187.39937767 21.05274279 197.34819134 -6.578125 198.8125 C-35.56309734 199.45502402 -62.47292671 189.27915961 -83.41796875 169.31640625 C-84.78888672 167.98802734 -84.78888672 167.98802734 -86.1875 166.6328125 C-86.98800781 165.86066406 -87.78851563 165.08851563 -88.61328125 164.29296875 C-95.35036956 157.67904476 -95.35036956 157.67904476 -97.1875 154.6328125 C-96.8471511 148.61215775 -90.44492501 143.83435196 -86.375 139.9453125 C-78.22274092 134.03092846 -70.4022794 131.77801583 -60.58349609 130.06420898 C-47.76793967 127.90953888 -47.76793967 127.90953888 -38 119.99609375 C-35.75439276 116.40156271 -34.71409744 113.82858585 -35.1875 109.6328125 C-36.38896722 107.51540859 -36.38896722 107.51540859 -38.0625 105.6328125 C-42.05642787 100.6027241 -43.49079402 97.15363399 -43.1875 90.6328125 C-44.280625 90.5915625 -45.37375 90.5503125 -46.5 90.5078125 C-50.1875 89.6328125 -50.1875 89.6328125 -52.125 87.3203125 C-53.620395 82.13041219 -53.80617366 77.00000738 -53.1875 71.6328125 C-51.1875 69.6328125 -51.1875 69.6328125 -48.5625 69.5078125 C-47.77875 69.5490625 -46.995 69.5903125 -46.1875 69.6328125 C-48.1675 68.6428125 -50.1475 67.6528125 -52.1875 66.6328125 C-52.20151855 65.66625732 -52.20151855 65.66625732 -52.21582031 64.68017578 C-52.27015044 61.70533483 -52.35366979 58.73196273 -52.4375 55.7578125 C-52.45167969 54.74460938 -52.46585938 53.73140625 -52.48046875 52.6875 C-52.70213045 45.77165511 -53.73244813 39.72143537 -57.1875 33.6328125 C-59.71603833 31.47172992 -59.71603833 31.47172992 -62.1875 30.6328125 C-55.69736423 14.71652715 -36.91348473 4.33555924 -22.1875 -2.3671875 C-14.34077703 -4.98276182 -7.38768175 -3.29807221 0 0 Z " fill="#E8BD78" transform="translate(120.1875,29.3671875)"/>
<path d="M0 0 C1.33722517 0.29095294 2.67739158 0.56856907 4.01953125 0.8359375 C19.31019828 3.93477305 30.34932219 9.73115991 39.90625 22.55859375 C41 25 41 25 40.375 27.0859375 C37.82866451 30.63055224 34.96384045 33.79927267 32 37 C31.26523438 37.80050781 30.53046875 38.60101563 29.7734375 39.42578125 C10.35004508 59.76656517 -15.75975721 69.71537884 -43.390625 71.1796875 C-72.37559734 71.82221152 -99.28542671 61.64634711 -120.23046875 41.68359375 C-121.14441406 40.79800781 -122.05835938 39.91242188 -123 39 C-123.80050781 38.22785156 -124.60101563 37.45570313 -125.42578125 36.66015625 C-132.16286956 30.04623226 -132.16286956 30.04623226 -134 27 C-133.6596511 20.97934525 -127.25742501 16.20153946 -123.1875 12.3125 C-113.63680938 5.38356759 -103.86828841 3.43659215 -92.43383789 1.4699707 C-89.9956149 0.99915324 -87.63908207 0.36434698 -85.2421875 -0.28125 C-81.04367781 -1.22944913 -78.91973887 -0.60310154 -75.1875 1.6875 C-60.87049798 9.51795042 -43.07791416 10.52928223 -27.3125 6.375 C-22.91344577 4.9278737 -19.20173331 3.02132229 -15.25 0.625 C-9.38427178 -2.74141793 -6.24258703 -1.91694929 0 0 Z " fill="#184794" transform="translate(157,157)"/>
<path d="M0 0 C3.63324193 2.10929879 6.04002078 4.75813586 8.82421875 7.859375 C11.12207366 9.90893517 12.77531119 10.42912267 15.75 11.1328125 C22.77469196 12.85116023 27.595118 17.15062311 31.44921875 23.203125 C36.5868775 33.06625211 37.53288687 44.85666383 35.12890625 55.72265625 C33.1481832 61.05663658 30.15403229 65.88669035 25.8125 69.6328125 C25.1525 69.6328125 24.4925 69.6328125 23.8125 69.6328125 C23.75642578 67.94865234 23.75642578 67.94865234 23.69921875 66.23046875 C23.20795866 54.17777257 22.36513097 44.18544347 13.375 35.1953125 C10.95696856 33.41589274 10.95696856 33.41589274 8.3125 33.6328125 C5.30640655 34.83524988 3.32592789 36.59813278 0.8125 38.6328125 C-5.49394988 41.76579851 -11.81607829 42.84620584 -18.71679688 44.00585938 C-25.73517702 45.28533524 -31.78181012 46.82086373 -36.546875 52.390625 C-38.40131404 56.05534977 -39.49668276 59.52861826 -40.4375 63.5078125 C-40.61023438 64.19617188 -40.78296875 64.88453125 -40.9609375 65.59375 C-41.38021642 67.27086568 -41.78535544 68.95150599 -42.1875 70.6328125 C-45.68279294 69.52067384 -48.93219192 68.31708059 -52.1875 66.6328125 C-52.20151855 65.66625732 -52.20151855 65.66625732 -52.21582031 64.68017578 C-52.27015044 61.70533483 -52.35366979 58.73196273 -52.4375 55.7578125 C-52.45167969 54.74460938 -52.46585938 53.73140625 -52.48046875 52.6875 C-52.70213045 45.77165511 -53.73244813 39.72143537 -57.1875 33.6328125 C-59.71603833 31.47172992 -59.71603833 31.47172992 -62.1875 30.6328125 C-55.69736423 14.71652715 -36.91348473 4.33555924 -22.1875 -2.3671875 C-14.34077703 -4.98276182 -7.38768175 -3.29807221 0 0 Z " fill="#462917" transform="translate(120.1875,29.3671875)"/>
<path d="M0 0 C0.33 0 0.66 0 1 0 C1 36.63 1 73.26 1 111 C-33.32 111 -67.64 111 -103 111 C-103 110.67 -103 110.34 -103 110 C-101.47246094 109.88785156 -101.47246094 109.88785156 -99.9140625 109.7734375 C-70.53001272 107.21036469 -45.29254187 93.03292302 -26 71 C-22.64340046 66.89443812 -19.76544506 62.52145009 -17 58 C-16.65098633 57.43087891 -16.30197266 56.86175781 -15.94238281 56.27539062 C-5.52648244 38.97635609 -1.20798439 19.99532052 0 0 Z " fill="#FDFDFE" transform="translate(220,117)"/>
<path d="M0 0 C0.33 0 0.66 0 1 0 C1.08636719 1.15113281 1.17273438 2.30226563 1.26171875 3.48828125 C3.77201147 33.28931299 14.18474105 57.3974771 35 79 C35.59425781 79.65742188 36.18851563 80.31484375 36.80078125 80.9921875 C48.93941351 94.06456071 66.9556979 102.64090244 84 107 C85.19689453 107.31904297 85.19689453 107.31904297 86.41796875 107.64453125 C92.21489438 109.07067755 98.055071 109.57774336 104 110 C104 110.33 104 110.66 104 111 C69.68 111 35.36 111 0 111 C0 74.37 0 37.74 0 0 Z " fill="#FDFDFE" transform="translate(0,117)"/>
<path d="M0 0 C32.67 0 65.34 0 99 0 C99 36.63 99 73.26 99 111 C98.67 111 98.34 111 98 111 C97.91363281 109.84886719 97.82726562 108.69773437 97.73828125 107.51171875 C95.34537666 79.10426449 85.95700568 54.80623996 66 34 C65.175 33.13375 64.35 32.2675 63.5 31.375 C62.675 30.59125 61.85 29.8075 61 29 C60.12214844 28.12988281 60.12214844 28.12988281 59.2265625 27.2421875 C43.18183961 12.03250595 21.66933221 3.82400329 0 1 C0 0.67 0 0.34 0 0 Z " fill="#FEFEFE" transform="translate(122,0)"/>
<path d="M0 0 C32.67 0 65.34 0 99 0 C99 0.33 99 0.66 99 1 C97.8140625 1.21914063 96.628125 1.43828125 95.40625 1.6640625 C74.28327828 5.73014125 56.51473126 12.84025749 40 27 C39.38898437 27.47824219 38.77796875 27.95648437 38.1484375 28.44921875 C15.32806431 46.63257547 4.36614633 77.01576854 1 105 C0.67 105 0.34 105 0 105 C0 70.35 0 35.7 0 0 Z " fill="#FEFEFE" transform="translate(0,0)"/>
<path d="M0 0 C0 26.4 0 52.8 0 80 C-11.28434886 78.87156511 -11.28434886 78.87156511 -15.375 76.1875 C-16.16648437 75.68605469 -16.95796875 75.18460937 -17.7734375 74.66796875 C-20.07131855 72.94657365 -22.02449687 71.0792396 -24 69 C-24.99 69.495 -24.99 69.495 -26 70 C-26.5878125 69.01 -26.5878125 69.01 -27.1875 68 C-28.17103443 66.37208094 -29.17536008 64.7533161 -30.27734375 63.203125 C-33.74163047 58.18241961 -34.84509204 54.08365799 -35 48 C-36.093125 47.95875 -37.18625 47.9175 -38.3125 47.875 C-42 47 -42 47 -43.9375 44.6875 C-45.432895 39.49759969 -45.61867366 34.36719488 -45 29 C-44.34 28.34 -43.68 27.68 -43 27 C-40.8359375 27.0234375 -40.8359375 27.0234375 -38.375 27.375 C-37.14910156 27.54128906 -37.14910156 27.54128906 -35.8984375 27.7109375 C-35.27195312 27.80632812 -34.64546875 27.90171875 -34 28 C-33.9175 26.700625 -33.835 25.40125 -33.75 24.0625 C-33.01478627 17.57832339 -30.81398317 12.33226407 -26.8125 7.1875 C-18.42920088 0.66715624 -10.4570769 0 0 0 Z " fill="#F1CC8B" transform="translate(112,72)"/>
<path d="M0 0 C0.49628906 0.38671875 0.99257812 0.7734375 1.50390625 1.171875 C10.22387377 7.85663189 17.66322015 12.44759456 29 11 C35.30084729 8.74367876 40.70687836 5.02737516 46 1 C50 5.75 50 5.75 50 8 C50.515625 8.2475 51.03125 8.495 51.5625 8.75 C54.77184151 10.39581616 57.87585664 12.1976096 61 14 C56.68112983 18.71969339 51.86549398 20.67242302 46 23 C45.21109375 23.32484375 44.4221875 23.6496875 43.609375 23.984375 C27.27128595 29.57094739 8.27227426 26.65486527 -6.875 19.25 C-8.25673528 18.51248213 -9.63473074 17.76757074 -11 17 C-10 14 -10 14 -7.75 11.875 C-4.31993546 8.28902344 -2.24773414 4.39025519 0 0 Z " fill="#D9B06F" transform="translate(87,140)"/>
<path d="M0 0 C1.70884005 1.62339805 3.37446717 3.29319053 5 5 C5 5.66 5 6.32 5 7 C5.515625 7.2475 6.03125 7.495 6.5625 7.75 C9.77184151 9.39581616 12.87585664 11.1976096 16 13 C9.0978333 20.54273902 -2.82061416 24.55730329 -12.9140625 25.1796875 C-15.2767916 25.18634307 -17.63949158 25.1026308 -20 25 C-20 20.38 -20 15.76 -20 11 C-17.999375 10.29875 -15.99875 9.5975 -13.9375 8.875 C-8.17019055 6.67762992 -4.34169633 4.34169633 0 0 Z " fill="#D0A660" transform="translate(132,141)"/>
</svg>
